<svg xmlns="http://www.w3.org/2000/svg" width="777.407" height="662.994" viewBox="0 0 777.407 662.994">
  <g id="Group_2878" data-name="Group 2878" transform="translate(0.501 0.5)" opacity="0.1">
    <path id="Path_12144" data-name="Path 12144" d="M689.99,251.592Q629.439,208.06,506.428,208H280.11v23.766c33.8,0,52.632-.765,61.625,8.957,5.255,4.658,8.48,12.421,9.912,23.289,1.314,10.987,1.911,36.9,1.911,77.987v394q0,90.289-10.868,100.2c-7.286,6.568-28.186,9.913-62.581,9.913v23.885H526.254V846.109c-33.679,0-53.743-2.628-60.073-7.883-6.21-5.374-10.032-13.495-11.346-24.363s-2.03-36.9-2.03-77.868V591.009h49.682c13.137,0,25.8-.478,38.1-1.553-5.136-13.615-10.391-27.111-15.884-40.725a339.037,339.037,0,0,1-34.157,1.672H452.8v-301.8h35.709q82.406,0,119.19,36.784,42.638,42.636,42.636,118.115,0,69.507-36.665,108.2a88.372,88.372,0,0,1-16.6,13.735l20.064,48.488c26.632-9.076,50.041-21.616,70.463-37.978q68.969-55,68.91-147.375Q756.512,299.363,689.99,251.592Z" transform="translate(-280.111 -208)" fill="#edeceb" stroke="#fff" stroke-width="1"/>
    <g id="Group_1166" data-name="Group 1166" transform="translate(172.694 0)">
      <path id="Path_12145" data-name="Path 12145" d="M294.57,381.888c23.647,48.727,64.372,148.092,87.78,207.568M458.9,573.93,324.427,248.606M458.9,573.93l13.615,32.962q16.84,40.845,39.65,102.231c3.344-7.285,9.555-22.453,18.87-45.622,3.345-9.2,7.644-20.542,12.9-33.679L712.69,208H886.34v23.766c-.6,0-6.569.358-17.8.956-26.513,1.433-41.92,5.852-46.219,13.5q-6.45,11.286-6.449,76.912v21.736l8.957,453.591c0,20.541,3.822,33.32,11.346,38.217,7.644,5.016,28.3,8.121,62.1,9.435v23.885H652.14V846.109c31.052-1.314,50.877-4.658,59.595-9.913,6.569-3.941,10.51-11.584,11.824-22.811s2.03-40.009,2.03-86.347V292.317L488.4,869.994h-5.971S437.765,733.367,382.35,589.456" transform="translate(-294.57 -208)" fill="none" stroke="#fff" stroke-width="1"/>
    </g>
  </g>
</svg>
